<mxfile host="app.diagrams.net" modified="2024-07-24T02:09:12.618Z" agent="Mozilla/5.0 (Macintosh; Intel Mac OS X 10_15_7) AppleWebKit/537.36 (KHTML, like Gecko) Chrome/126.0.0.0 Safari/537.36" etag="RBoEPmcZCQ1Ny8-zDjH9" version="24.7.3" type="device">
  <diagram name="第 1 页" id="8z5JgDU4k1wF5t76I71D">
    <mxGraphModel dx="1624" dy="624" grid="0" gridSize="10" guides="1" tooltips="1" connect="1" arrows="1" fold="1" page="0" pageScale="1" pageWidth="827" pageHeight="1169" math="0" shadow="0">
      <root>
        <mxCell id="0" />
        <mxCell id="1" parent="0" />
        <mxCell id="tve5QqnK2sldn6wVouV2-2" style="edgeStyle=none;curved=1;rounded=0;orthogonalLoop=1;jettySize=auto;html=1;fontSize=12;startSize=8;endSize=8;entryX=0;entryY=0.5;entryDx=0;entryDy=0;" edge="1" parent="1" source="tve5QqnK2sldn6wVouV2-1" target="tve5QqnK2sldn6wVouV2-3">
          <mxGeometry relative="1" as="geometry">
            <mxPoint x="-173" y="132" as="targetPoint" />
          </mxGeometry>
        </mxCell>
        <mxCell id="tve5QqnK2sldn6wVouV2-1" value="Step1 Data set processing" style="rounded=1;whiteSpace=wrap;html=1;" vertex="1" parent="1">
          <mxGeometry x="-331" y="102" width="120" height="60" as="geometry" />
        </mxCell>
        <mxCell id="tve5QqnK2sldn6wVouV2-5" style="edgeStyle=none;curved=1;rounded=0;orthogonalLoop=1;jettySize=auto;html=1;exitX=1;exitY=0.5;exitDx=0;exitDy=0;entryX=0;entryY=0.5;entryDx=0;entryDy=0;fontSize=12;startSize=8;endSize=8;" edge="1" parent="1" source="tve5QqnK2sldn6wVouV2-3" target="tve5QqnK2sldn6wVouV2-4">
          <mxGeometry relative="1" as="geometry" />
        </mxCell>
        <mxCell id="tve5QqnK2sldn6wVouV2-3" value="Step2 Data analysis" style="rounded=1;whiteSpace=wrap;html=1;" vertex="1" parent="1">
          <mxGeometry x="-177" y="102" width="120" height="60" as="geometry" />
        </mxCell>
        <mxCell id="tve5QqnK2sldn6wVouV2-7" style="edgeStyle=none;curved=1;rounded=0;orthogonalLoop=1;jettySize=auto;html=1;exitX=0.5;exitY=1;exitDx=0;exitDy=0;entryX=0.5;entryY=0;entryDx=0;entryDy=0;fontSize=12;startSize=8;endSize=8;" edge="1" parent="1" source="tve5QqnK2sldn6wVouV2-4" target="tve5QqnK2sldn6wVouV2-6">
          <mxGeometry relative="1" as="geometry" />
        </mxCell>
        <mxCell id="tve5QqnK2sldn6wVouV2-4" value="Step3 Data set partitioning" style="rounded=1;whiteSpace=wrap;html=1;" vertex="1" parent="1">
          <mxGeometry x="-24" y="102" width="120" height="60" as="geometry" />
        </mxCell>
        <mxCell id="tve5QqnK2sldn6wVouV2-9" style="edgeStyle=none;curved=1;rounded=0;orthogonalLoop=1;jettySize=auto;html=1;exitX=0;exitY=0.5;exitDx=0;exitDy=0;entryX=1;entryY=0.5;entryDx=0;entryDy=0;fontSize=12;startSize=8;endSize=8;" edge="1" parent="1" source="tve5QqnK2sldn6wVouV2-6" target="tve5QqnK2sldn6wVouV2-8">
          <mxGeometry relative="1" as="geometry" />
        </mxCell>
        <mxCell id="tve5QqnK2sldn6wVouV2-6" value="Step4 Calculate weight factors using linear regression model" style="rounded=1;whiteSpace=wrap;html=1;" vertex="1" parent="1">
          <mxGeometry x="-24" y="194" width="120" height="60" as="geometry" />
        </mxCell>
        <mxCell id="tve5QqnK2sldn6wVouV2-11" style="edgeStyle=none;curved=1;rounded=0;orthogonalLoop=1;jettySize=auto;html=1;exitX=0;exitY=0.5;exitDx=0;exitDy=0;entryX=1;entryY=0.5;entryDx=0;entryDy=0;fontSize=12;startSize=8;endSize=8;" edge="1" parent="1" source="tve5QqnK2sldn6wVouV2-8" target="tve5QqnK2sldn6wVouV2-10">
          <mxGeometry relative="1" as="geometry" />
        </mxCell>
        <mxCell id="tve5QqnK2sldn6wVouV2-8" value="Step5 Write cache replacement algorithm" style="rounded=1;whiteSpace=wrap;html=1;" vertex="1" parent="1">
          <mxGeometry x="-177" y="194" width="120" height="60" as="geometry" />
        </mxCell>
        <mxCell id="tve5QqnK2sldn6wVouV2-10" value="Step6 Calculate cache hit rate in validation dataset" style="rounded=1;whiteSpace=wrap;html=1;" vertex="1" parent="1">
          <mxGeometry x="-331" y="194" width="120" height="60" as="geometry" />
        </mxCell>
      </root>
    </mxGraphModel>
  </diagram>
</mxfile>
